{
	"asset":{
		"generator":"Khronos glTF Blender I/O v3.6.27",
		"version":"2.0"
	},
	"scene":0,
	"scenes":[
		{
			"name":"Scene",
			"nodes":[
				15
			]
		}
	],
	"nodes":[
		{
			"mesh":1,
			"name":"Steve_Hat",
			"rotation":[
				3.794021807834724e-08,
				-4.037327694735347e-30,
				-4.62199789552642e-09,
				1
			],
			"scale":[
				0.43157657980918884,
				0.43157657980918884,
				0.43157657980918884
			],
			"translation":[
				-0.004048045724630356,
				0.40431761741638184,
				-0.0016979053616523743
			]
		},
		{
			"children":[
				0
			],
			"name":"Head",
			"rotation":[
				5.421011921218706e-16,
				2.3283064365386963e-08,
				2.3283064365386963e-08,
				1
			],
			"translation":[
				-8.828366926394438e-10,
				0.5999999046325684,
				9.758341912302626e-10
			]
		},
		{
			"name":"Arm:Left:Lower",
			"rotation":[
				0,
				5.221483689865636e-08,
				0,
				1
			],
			"translation":[
				1.5939956199417793e-07,
				0.39999979734420776,
				-9.862956007467005e-10
			]
		},
		{
			"children":[
				2
			],
			"name":"Arm:Left:Upper",
			"rotation":[
				1,
				0,
				-7.549790126404332e-08,
				0
			],
			"translation":[
				1.600000023841858,
				0.3999999165534973,
				-7.352996789222743e-08
			]
		},
		{
			"name":"Arm:Right:Lower",
			"rotation":[
				0,
				5.221483689865636e-08,
				0,
				1
			],
			"translation":[
				4.0190268890683e-08,
				0.3999999463558197,
				1.6378239875436407e-09
			]
		},
		{
			"children":[
				4
			],
			"name":"Arm:Right:Upper",
			"rotation":[
				1,
				0,
				-7.549790126404332e-08,
				0
			],
			"translation":[
				-1.5999999046325684,
				0.3999997675418854,
				7.548164404624913e-08
			]
		},
		{
			"children":[
				1,
				3,
				5
			],
			"name":"Chest",
			"rotation":[
				-5.421010862427522e-16,
				-2.3283064365386963e-08,
				-2.3283064365386963e-08,
				1
			],
			"translation":[
				0,
				0.6000000238418579,
				0
			]
		},
		{
			"children":[
				6
			],
			"name":"Body",
			"rotation":[
				0.7071067690849304,
				0,
				0,
				0.7071067690849304
			]
		},
		{
			"name":"Leg:Right:Lower",
			"translation":[
				0,
				0.5999999046325684,
				0
			]
		},
		{
			"children":[
				8
			],
			"name":"Leg:Right:Upper",
			"rotation":[
				-0.7071067690849304,
				0,
				0,
				0.7071067690849304
			],
			"translation":[
				-1.2000000476837158,
				0,
				-1
			]
		},
		{
			"name":"Leg:Left:Lower",
			"translation":[
				0,
				0.5999999046325684,
				0
			]
		},
		{
			"children":[
				10
			],
			"name":"Leg:Left:Upper",
			"rotation":[
				-0.7071067690849304,
				0,
				0,
				0.7071067690849304
			],
			"translation":[
				1.2000000476837158,
				0,
				-1
			]
		},
		{
			"children":[
				7,
				9,
				11
			],
			"name":"Bone.011",
			"rotation":[
				-0.7071067690849304,
				0,
				0,
				0.7071067690849304
			]
		},
		{
			"mesh":0,
			"name":"2nd Layer",
			"skin":0
		},
		{
			"mesh":2,
			"name":"Character",
			"skin":0
		},
		{
			"children":[
				13,
				14,
				12
			],
			"name":"Bones:Character",
			"scale":[
				0.6203539967536926,
				0.6203539967536926,
				0.6203539967536926
			],
			"translation":[
				-0.013000011444091797,
				0.75,
				-0.03100001811981201
			]
		}
	],
	"materials":[
		{
			"doubleSided":true,
			"name":"Hat",
			"pbrMetallicRoughness":{}
		},
		{
			"doubleSided":true,
			"name":"Char",
			"pbrMetallicRoughness":{}
		}
	],
	"meshes":[
		{
			"name":"Cube.001",
			"primitives":[
				{
					"attributes":{
						"POSITION":0,
						"NORMAL":1,
						"TEXCOORD_0":2,
						"JOINTS_0":3,
						"WEIGHTS_0":4
					},
					"indices":5,
					"material":0
				}
			]
		},
		{
			"name":"Cube.004",
			"primitives":[
				{
					"attributes":{
						"POSITION":7,
						"NORMAL":8,
						"TEXCOORD_0":9,
						"TEXCOORD_1":10
					},
					"indices":11,
					"material":0
				}
			]
		},
		{
			"name":"Cube",
			"primitives":[
				{
					"attributes":{
						"POSITION":12,
						"NORMAL":13,
						"TEXCOORD_0":14,
						"TEXCOORD_1":15,
						"JOINTS_0":16,
						"WEIGHTS_0":17
					},
					"indices":18,
					"material":1
				}
			]
		}
	],
	"skins":[
		{
			"inverseBindMatrices":6,
			"joints":[
				12,
				7,
				6,
				1,
				3,
				2,
				5,
				4,
				9,
				8,
				11,
				10
			],
			"name":"Bones:Character"
		}
	],
	"accessors":[
		{
			"bufferView":0,
			"componentType":5126,
			"count":1390,
			"max":[
				1.1061313152313232,
				1.9881470203399658,
				0.099232517182827
			],
			"min":[
				-1.1333467960357666,
				-0.1285010427236557,
				-0.16129478812217712
			],
			"type":"VEC3"
		},
		{
			"bufferView":1,
			"componentType":5126,
			"count":1390,
			"type":"VEC3"
		},
		{
			"bufferView":2,
			"componentType":5126,
			"count":1390,
			"type":"VEC2"
		},
		{
			"bufferView":3,
			"componentType":5121,
			"count":1390,
			"type":"VEC4"
		},
		{
			"bufferView":4,
			"componentType":5126,
			"count":1390,
			"type":"VEC4"
		},
		{
			"bufferView":5,
			"componentType":5123,
			"count":6408,
			"type":"SCALAR"
		},
		{
			"bufferView":6,
			"componentType":5126,
			"count":12,
			"type":"MAT4"
		},
		{
			"bufferView":7,
			"componentType":5126,
			"count":24,
			"max":[
				1,
				1,
				1
			],
			"min":[
				-1,
				-1,
				-1
			],
			"type":"VEC3"
		},
		{
			"bufferView":8,
			"componentType":5126,
			"count":24,
			"type":"VEC3"
		},
		{
			"bufferView":9,
			"componentType":5126,
			"count":24,
			"type":"VEC2"
		},
		{
			"bufferView":10,
			"componentType":5126,
			"count":24,
			"type":"VEC2"
		},
		{
			"bufferView":11,
			"componentType":5123,
			"count":36,
			"type":"SCALAR"
		},
		{
			"bufferView":12,
			"componentType":5126,
			"count":1414,
			"max":[
				1.103637456893921,
				1.9907079935073853,
				0.21714197099208832
			],
			"min":[
				-1.129637360572815,
				-0.6147788763046265,
				-0.2791418135166168
			],
			"type":"VEC3"
		},
		{
			"bufferView":13,
			"componentType":5126,
			"count":1414,
			"type":"VEC3"
		},
		{
			"bufferView":14,
			"componentType":5126,
			"count":1414,
			"type":"VEC2"
		},
		{
			"bufferView":15,
			"componentType":5126,
			"count":1414,
			"type":"VEC2"
		},
		{
			"bufferView":16,
			"componentType":5121,
			"count":1414,
			"type":"VEC4"
		},
		{
			"bufferView":17,
			"componentType":5126,
			"count":1414,
			"type":"VEC4"
		},
		{
			"bufferView":18,
			"componentType":5123,
			"count":6444,
			"type":"SCALAR"
		}
	],
	"bufferViews":[
		{
			"buffer":0,
			"byteLength":16680,
			"byteOffset":0,
			"target":34962
		},
		{
			"buffer":0,
			"byteLength":16680,
			"byteOffset":16680,
			"target":34962
		},
		{
			"buffer":0,
			"byteLength":11120,
			"byteOffset":33360,
			"target":34962
		},
		{
			"buffer":0,
			"byteLength":5560,
			"byteOffset":44480,
			"target":34962
		},
		{
			"buffer":0,
			"byteLength":22240,
			"byteOffset":50040,
			"target":34962
		},
		{
			"buffer":0,
			"byteLength":12816,
			"byteOffset":72280,
			"target":34963
		},
		{
			"buffer":0,
			"byteLength":768,
			"byteOffset":85096
		},
		{
			"buffer":0,
			"byteLength":288,
			"byteOffset":85864,
			"target":34962
		},
		{
			"buffer":0,
			"byteLength":288,
			"byteOffset":86152,
			"target":34962
		},
		{
			"buffer":0,
			"byteLength":192,
			"byteOffset":86440,
			"target":34962
		},
		{
			"buffer":0,
			"byteLength":192,
			"byteOffset":86632,
			"target":34962
		},
		{
			"buffer":0,
			"byteLength":72,
			"byteOffset":86824,
			"target":34963
		},
		{
			"buffer":0,
			"byteLength":16968,
			"byteOffset":86896,
			"target":34962
		},
		{
			"buffer":0,
			"byteLength":16968,
			"byteOffset":103864,
			"target":34962
		},
		{
			"buffer":0,
			"byteLength":11312,
			"byteOffset":120832,
			"target":34962
		},
		{
			"buffer":0,
			"byteLength":11312,
			"byteOffset":132144,
			"target":34962
		},
		{
			"buffer":0,
			"byteLength":5656,
			"byteOffset":143456,
			"target":34962
		},
		{
			"buffer":0,
			"byteLength":22624,
			"byteOffset":149112,
			"target":34962
		},
		{
			"buffer":0,
			"byteLength":12888,
			"byteOffset":171736,
			"target":34963
		}
	],
	"buffers":[
		{
			"byteLength":184624,
			"uri":"data:application/octet-stream;base64,"
		}
	]
}
